<svg xmlns="http://www.w3.org/2000/svg" viewBox="0 0 32 32">
  <rect width="32" height="32" rx="6" fill="#000"/>
  <g fill="#fff">
    <!-- Body -->
    <ellipse cx="14.2" cy="19" rx="2.6" ry="8.6"/>
    <!-- Upper body -->
    <ellipse cx="15" cy="13.2" rx="2.3" ry="3.2"
             transform="rotate(5 15 13.2)"/>
    <!-- Neck -->
    <ellipse cx="15.6" cy="10.5" rx="2" ry="1.8"
             transform="rotate(10 15.6 10.5)"/>
    <!-- Head -->
    <ellipse cx="17.2" cy="7.8" rx="2.8" ry="1.7"
             transform="rotate(14 17.2 7.8)"/>
    <!-- Snout -->
    <ellipse cx="20" cy="8.4" rx="1.8" ry="0.75"
             transform="rotate(18 20 8.4)"/>
    <!-- Ear -->
    <ellipse cx="15.2" cy="5.5" rx="0.6" ry="1.5"
             transform="rotate(-6 15.2 5.5)"/>
    <!-- Tail -->
    <path d="M 15.4,26.5 C 17,27.2 19.5,27.5 21.5,26.8 C 23,26 23.5,25 22.5,25.2 C 20.5,25.8 18,26.4 15.5,26 Z"/>
  </g>
  <!-- Eye -->
  <circle cx="18.2" cy="7.5" r="0.5" fill="#000"/>
</svg>